<svg xmlns="http://www.w3.org/2000/svg" viewBox="0 0 1440 900" preserveAspectRatio="xMidYMid meet" role="img" aria-label="Assets list mockup">
  <defs>
    <linearGradient id="bg2" x1="0" y1="0" x2="0" y2="1">
      <stop offset="0%" stop-color="#0a0a0b"/>
      <stop offset="100%" stop-color="#0e0e10"/>
    </linearGradient>
  </defs>
  <rect width="1440" height="900" fill="url(#bg2)"/>
  <rect x="0" y="0" width="220" height="900" fill="#111114"/>
  <g fill="#3b82f6"><rect x="20" y="22" width="14" height="14" rx="3"/></g>
  <text x="42" y="36" fill="#e5e7eb" font-family="Inter, system-ui, sans-serif" font-size="13" font-weight="600">RenewPilot</text>
  <g font-family="Inter, system-ui, sans-serif" font-size="12" fill="#9ca3af">
    <text x="44" y="100">Dashboard</text>
    <rect x="14" y="118" width="192" height="32" rx="6" fill="#1f2937"/>
    <text x="44" y="138" fill="#e5e7eb" font-weight="500">Assets</text>
    <text x="44" y="170">Calendar</text>
    <text x="44" y="202">Renewals</text>
    <text x="44" y="234">Reports</text>
    <text x="44" y="266">Notifications</text>
    <text x="44" y="298">Team</text>
    <text x="44" y="330">Billing</text>
    <text x="44" y="362">Settings</text>
  </g>

  <rect x="220" y="0" width="1220" height="56" fill="#0e0e10"/>
  <line x1="220" y1="56" x2="1440" y2="56" stroke="#1f2937"/>
  <text x="252" y="34" fill="#e5e7eb" font-family="Inter, system-ui, sans-serif" font-size="14" font-weight="600">Assets</text>

  <text x="252" y="98" fill="#e5e7eb" font-family="Inter, system-ui, sans-serif" font-size="22" font-weight="700">87 assets</text>
  <rect x="1280" y="80" width="100" height="34" rx="8" fill="#3b82f6"/>
  <text x="1330" y="102" fill="#fff" font-family="Inter, system-ui, sans-serif" font-size="12" font-weight="500" text-anchor="middle">+ Add asset</text>

  <!-- Filter chips -->
  <g font-family="Inter, system-ui, sans-serif" font-size="11">
    <rect x="252" y="128" width="80" height="26" rx="13" fill="#1f2937"/>
    <text x="292" y="145" fill="#e5e7eb" text-anchor="middle">All types</text>
    <rect x="340" y="128" width="80" height="26" rx="13" fill="#0e0e10" stroke="#1f2937"/>
    <text x="380" y="145" fill="#9ca3af" text-anchor="middle">Domains</text>
    <rect x="428" y="128" width="60" height="26" rx="13" fill="#0e0e10" stroke="#1f2937"/>
    <text x="458" y="145" fill="#9ca3af" text-anchor="middle">SSL</text>
    <rect x="496" y="128" width="80" height="26" rx="13" fill="#0e0e10" stroke="#1f2937"/>
    <text x="536" y="145" fill="#9ca3af" text-anchor="middle">Licenses</text>
    <rect x="584" y="128" width="80" height="26" rx="13" fill="#0e0e10" stroke="#1f2937"/>
    <text x="624" y="145" fill="#9ca3af" text-anchor="middle">Hosting</text>
    <rect x="1240" y="128" width="140" height="26" rx="13" fill="#0e0e10" stroke="#1f2937"/>
    <text x="1310" y="145" fill="#9ca3af" text-anchor="middle">Sort: Renewal date ▾</text>
  </g>

  <!-- Table header -->
  <rect x="252" y="180" width="1128" height="40" rx="8" fill="#0e0e10" stroke="#1f2937"/>
  <g font-family="Inter, system-ui, sans-serif" font-size="10" fill="#6b7280" font-weight="500">
    <text x="272" y="205">NAME</text>
    <text x="540" y="205">TYPE</text>
    <text x="700" y="205">VENDOR</text>
    <text x="900" y="205">RENEWAL</text>
    <text x="1080" y="205">DAYS</text>
    <text x="1240" y="205">STATUS</text>
  </g>

  <!-- Rows -->
  <g font-family="Inter, system-ui, sans-serif" font-size="12">
    <rect x="252" y="232" width="1128" height="56" rx="8" fill="#111114" stroke="#1f2937"/>
    <text x="272" y="258" fill="#e5e7eb" font-weight="500">acme.com</text>
    <text x="272" y="276" fill="#6b7280" font-size="10">Primary corporate domain</text>
    <text x="540" y="265" fill="#9ca3af" font-size="10">DOMAIN</text>
    <text x="700" y="265" fill="#e5e7eb">GoDaddy</text>
    <text x="900" y="265" fill="#e5e7eb" font-family="ui-monospace, monospace" font-size="11">2026-04-30</text>
    <text x="1080" y="265" fill="#ef4444" font-weight="700" font-size="14">03</text>
    <circle cx="1248" cy="261" r="3" fill="#ef4444"/>
    <text x="1258" y="265" fill="#ef4444" font-size="11">Critical</text>

    <rect x="252" y="296" width="1128" height="56" rx="8" fill="#111114" stroke="#1f2937"/>
    <text x="272" y="322" fill="#e5e7eb" font-weight="500">*.acme.com</text>
    <text x="272" y="340" fill="#6b7280" font-size="10">Wildcard SSL certificate</text>
    <text x="540" y="329" fill="#9ca3af" font-size="10">SSL</text>
    <text x="700" y="329" fill="#e5e7eb">Let's Encrypt</text>
    <text x="900" y="329" fill="#e5e7eb" font-family="ui-monospace, monospace" font-size="11">2026-05-08</text>
    <text x="1080" y="329" fill="#f59e0b" font-weight="700" font-size="14">11</text>
    <circle cx="1248" cy="325" r="3" fill="#f59e0b"/>
    <text x="1258" y="329" fill="#f59e0b" font-size="11">Warning</text>

    <rect x="252" y="360" width="1128" height="56" rx="8" fill="#111114" stroke="#1f2937"/>
    <text x="272" y="386" fill="#e5e7eb" font-weight="500">Linear · 12 seats</text>
    <text x="272" y="404" fill="#6b7280" font-size="10">Annual subscription</text>
    <text x="540" y="393" fill="#9ca3af" font-size="10">LICENSE</text>
    <text x="700" y="393" fill="#e5e7eb">Linear</text>
    <text x="900" y="393" fill="#e5e7eb" font-family="ui-monospace, monospace" font-size="11">2026-05-25</text>
    <text x="1080" y="393" fill="#10b981" font-weight="700" font-size="14">28</text>
    <circle cx="1248" cy="389" r="3" fill="#10b981"/>
    <text x="1258" y="393" fill="#10b981" font-size="11">Active</text>

    <rect x="252" y="424" width="1128" height="56" rx="8" fill="#111114" stroke="#1f2937"/>
    <text x="272" y="450" fill="#e5e7eb" font-weight="500">Vercel Pro</text>
    <text x="272" y="468" fill="#6b7280" font-size="10">Hosting · acme-prod team</text>
    <text x="540" y="457" fill="#9ca3af" font-size="10">HOSTING</text>
    <text x="700" y="457" fill="#e5e7eb">Vercel</text>
    <text x="900" y="457" fill="#e5e7eb" font-family="ui-monospace, monospace" font-size="11">2026-06-12</text>
    <text x="1080" y="457" fill="#10b981" font-weight="700" font-size="14">46</text>
    <circle cx="1248" cy="453" r="3" fill="#10b981"/>
    <text x="1258" y="457" fill="#10b981" font-size="11">Active</text>

    <rect x="252" y="488" width="1128" height="56" rx="8" fill="#111114" stroke="#1f2937"/>
    <text x="272" y="514" fill="#e5e7eb" font-weight="500">Cloudflare Pro</text>
    <text x="272" y="532" fill="#6b7280" font-size="10">CDN + DDoS protection</text>
    <text x="540" y="521" fill="#9ca3af" font-size="10">CDN</text>
    <text x="700" y="521" fill="#e5e7eb">Cloudflare</text>
    <text x="900" y="521" fill="#e5e7eb" font-family="ui-monospace, monospace" font-size="11">2026-07-04</text>
    <text x="1080" y="521" fill="#10b981" font-weight="700" font-size="14">68</text>
    <circle cx="1248" cy="517" r="3" fill="#10b981"/>
    <text x="1258" y="521" fill="#10b981" font-size="11">Active</text>

    <rect x="252" y="552" width="1128" height="56" rx="8" fill="#111114" stroke="#1f2937"/>
    <text x="272" y="578" fill="#e5e7eb" font-weight="500">Visa **** 4321</text>
    <text x="272" y="596" fill="#6b7280" font-size="10">Corporate card · billing</text>
    <text x="540" y="585" fill="#9ca3af" font-size="10">CREDIT_CARD</text>
    <text x="700" y="585" fill="#e5e7eb">Garanti BBVA</text>
    <text x="900" y="585" fill="#e5e7eb" font-family="ui-monospace, monospace" font-size="11">2026-08-01</text>
    <text x="1080" y="585" fill="#10b981" font-weight="700" font-size="14">96</text>
    <circle cx="1248" cy="581" r="3" fill="#10b981"/>
    <text x="1258" y="585" fill="#10b981" font-size="11">Active</text>

    <rect x="252" y="616" width="1128" height="56" rx="8" fill="#111114" stroke="#1f2937"/>
    <text x="272" y="642" fill="#e5e7eb" font-weight="500">Hetzner CX31</text>
    <text x="272" y="660" fill="#6b7280" font-size="10">eu-central · staging</text>
    <text x="540" y="649" fill="#9ca3af" font-size="10">SERVER</text>
    <text x="700" y="649" fill="#e5e7eb">Hetzner</text>
    <text x="900" y="649" fill="#e5e7eb" font-family="ui-monospace, monospace" font-size="11">2026-09-15</text>
    <text x="1080" y="649" fill="#10b981" font-weight="700" font-size="14">141</text>
    <circle cx="1248" cy="645" r="3" fill="#10b981"/>
    <text x="1258" y="649" fill="#10b981" font-size="11">Active</text>

    <rect x="252" y="680" width="1128" height="56" rx="8" fill="#111114" stroke="#1f2937"/>
    <text x="272" y="706" fill="#e5e7eb" font-weight="500">api.acme.com</text>
    <text x="272" y="724" fill="#6b7280" font-size="10">Subdomain · API gateway</text>
    <text x="540" y="713" fill="#9ca3af" font-size="10">DOMAIN</text>
    <text x="700" y="713" fill="#e5e7eb">Cloudflare</text>
    <text x="900" y="713" fill="#e5e7eb" font-family="ui-monospace, monospace" font-size="11">2026-09-30</text>
    <text x="1080" y="713" fill="#10b981" font-weight="700" font-size="14">156</text>
    <circle cx="1248" cy="709" r="3" fill="#10b981"/>
    <text x="1258" y="713" fill="#10b981" font-size="11">Active</text>
  </g>

  <text x="252" y="780" fill="#6b7280" font-family="Inter, system-ui, sans-serif" font-size="11">Showing 8 of 87 · Page 1 of 11</text>
</svg>
